<svg viewBox="0 0 138 10" xmlns="http://www.w3.org/2000/svg">
 <g id="Page-1" fill="none" fill-rule="evenodd">
  <g id="logo" transform="translate(0-1)" fill-rule="nonzero" fill="#000">
   <path d="m8.872 5.5c2.01-.006 3.621-.773 3.621-2.212 0-1.522-1.961-2.288-4.491-2.288h-8v.221h2.387v9.283h-2.387v.218h8.923c3 0 4.491-1.275 4.491-2.578 0-1.775-2.151-2.651-4.543-2.644m-3.719-4.28h1.929c1.863 0 2.94.465 2.94 2.083 0 1.687-1.113 2.126-2.466 2.126h-2.403v-4.209m2.403 9.283h-2.403v-4.869h2.314c1.872 0 3.241.305 3.241 2.499 0 1.796-1.614 2.369-3.152 2.369" id="Shape"/>
   <path d="m61.28 5.5c2.01-.006 3.622-.773 3.622-2.212 0-1.522-1.962-2.288-4.491-2.288h-8v.221h2.388v9.283h-2.388v.218h8.923c3 0 4.491-1.275 4.491-2.578 0-1.775-2.151-2.651-4.543-2.644m-3.719-4.28h1.929c1.863 0 2.94.465 2.94 2.083 0 1.687-1.112 2.126-2.466 2.126h-2.404v-4.209m2.404 9.283h-2.404v-4.869h2.314c1.872 0 3.242.305 3.242 2.499 0 1.796-1.614 2.369-3.152 2.369" id="Shape"/>
   <path d="m26.763 1.221h2.466v6.229c0 2.241-2.095 3.063-4.335 3.063-1.794 0-3.695-.594-3.695-2.898v-6.394h2.407v-.221h-7.521v.221h2.367v6.394c0 2.721 3.622 3.342 5.951 3.342 2.819 0 5.139-1.037 5.139-3.507v-6.229h2.583v-.221h-5.362v.221" id="Shape"/>
   <path d="m48.961 10.627c-.706 0-1.157-.37-1.157-1.07v-1.234c0-1.371-1.216-2.66-4.256-2.66 2.099 0 3.667-1 3.667-2.277 0-1.344-1.745-2.386-4.59-2.386h-8.278v.221h2.387v9.283h-2.387v.218h7.383v-.218h-2.23v-4.732h2.733c1.587 0 2.745.528 2.745 1.762v.668c0 2.041 1.884 2.753 3.453 2.753.843 0 1.372-.192 1.784-.48l-.166-.121c-.256.205-.559.272-1.089.272m-7.334-5.074h-2.127v-4.332h2.028c1.98 0 2.921.708 2.921 2.22 0 1.556-1.209 2.112-2.823 2.112" id="Shape"/>
   <path d="m101.17 10.627c-.706 0-1.157-.37-1.157-1.07v-1.234c0-1.371-1.215-2.66-4.255-2.66 2.098 0 3.668-1 3.668-2.277 0-1.344-1.746-2.386-4.59-2.386h-8.279v.221h2.387v9.283h-2.387v.218h7.383v-.218h-2.23v-4.732h2.733c1.587 0 2.746.528 2.746 1.762v.668c0 2.041 1.883 2.753 3.452 2.753.843 0 1.373-.192 1.785-.48l-.167-.121c-.254.205-.56.272-1.089.272m-7.334-5.074h-2.126v-4.332h2.029c1.979 0 2.92.708 2.92 2.22 0 1.556-1.209 2.112-2.823 2.112" id="Shape"/>
   <path d="m119.25 10.627c-.706 0-1.157-.37-1.157-1.07v-1.234c0-1.371-1.216-2.66-4.256-2.66 2.098 0 3.668-1 3.668-2.277 0-1.344-1.746-2.386-4.59-2.386h-8.278v.221h2.387v9.283h-2.387v.218h7.383v-.218h-2.23v-4.732h2.733c1.587 0 2.745.528 2.745 1.762v.668c0 2.041 1.884 2.753 3.452 2.753.843 0 1.373-.192 1.785-.48l-.167-.121c-.255.205-.559.272-1.089.272m-7.334-5.074h-2.126v-4.332h2.029c1.979 0 2.92.708 2.92 2.22 0 1.556-1.209 2.112-2.823 2.112" id="Shape"/>
   <path d="m78.03 10.504h-3.873v-4.663h1.45c1.783 0 2.432 1.069 2.432 2h.294v-4.249h-.294c0 .946-.649 2.028-2.432 2.028h-1.45v-4.401h3.815c2.413 0 3.51 1.493 3.51 2.769h.314v-2.948l-.079-.041h-12.714v.221h2.408v9.283h-2.408v.218h13.735l.059-.04v-3.223h-.294c0 1.412-1.315 3.045-4.472 3.045" id="Shape"/>
   <path id="Shape" d="m132 1v.221h2.62l-4.03 4.839-4.24-4.839h2.62v-.221h-8.11v.221h2.53l4.55 5.264v4.02h-2.4v.218h7.52v-.218h-2.41v-4.073l4.36-5.21h2.14v-.222z"/>
  </g>
 </g>
</svg>
